<?xml version="1.0" encoding="UTF-8"?> <svg xmlns="http://www.w3.org/2000/svg" xmlns:xlink="http://www.w3.org/1999/xlink" width="556px" height="85px" viewBox="0 0 556 85" version="1.1"><title>JAC-50-Horiz</title><defs><polygon id="path-1" points="0.21 0.433 366.506 0.433 366.506 79.94 0.21 79.94"></polygon><polygon id="path-3" points="0.21 0.433 366.506 0.433 366.506 79.94 0.21 79.94"></polygon><polygon id="path-5" points="0.21 0.433 366.506 0.433 366.506 79.94 0.21 79.94"></polygon><polygon id="path-7" points="0.21 0.433 366.506 0.433 366.506 79.94 0.21 79.94"></polygon><polygon id="path-9" points="0.533 0.842 32.732 0.842 32.732 21.94 0.533 21.94"></polygon><polygon id="path-11" points="0.533 0.842 32.732 0.842 32.732 21.94 0.533 21.94"></polygon><polygon id="path-13" points="0.075 0.842 32.607 0.842 32.607 21.94 0.075 21.94"></polygon><polygon id="path-15" points="0.075 0.842 32.607 0.842 32.607 21.94 0.075 21.94"></polygon><polygon id="path-17" points="0.21 0.433 366.506 0.433 366.506 79.94 0.21 79.94"></polygon><polygon id="path-19" points="0.21 0.433 366.506 0.433 366.506 79.94 0.21 79.94"></polygon><polygon id="path-21" points="0.21 0.433 366.506 0.433 366.506 79.94 0.21 79.94"></polygon><polygon id="path-23" points="0.21 0.433 366.506 0.433 366.506 79.94 0.21 79.94"></polygon><polygon id="path-25" points="0.533 0.842 32.732 0.842 32.732 21.94 0.533 21.94"></polygon><polygon id="path-27" points="0.533 0.842 32.732 0.842 32.732 21.94 0.533 21.94"></polygon><polygon id="path-29" points="0.075 0.842 32.607 0.842 32.607 21.94 0.075 21.94"></polygon><polygon id="path-31" points="0.075 0.842 32.607 0.842 32.607 21.94 0.075 21.94"></polygon></defs><g id="Page-1" stroke="none" stroke-width="1" fill="none" fill-rule="evenodd"><g id="JAC-50-Horiz"><path d="M152.375,18.969 C153.66,15.854 155.465,13.221 157.782,11.067 C160.099,8.915 162.874,7.275 166.105,6.153 C169.336,5.028 172.868,4.463 176.711,4.463 C180.596,4.463 184.151,5.028 187.383,6.153 C190.613,7.275 193.391,8.915 195.71,11.067 C198.024,13.221 199.827,15.854 201.116,18.969 C202.401,22.081 203.045,25.624 203.045,29.607 C203.045,33.587 202.401,37.131 201.116,40.251 C199.827,43.359 198.024,45.997 195.71,48.148 C193.391,50.301 190.613,51.906 187.383,52.962 C184.151,54.014 180.596,54.538 176.711,54.538 C172.868,54.538 169.336,54.014 166.105,52.962 C162.874,51.906 160.099,50.301 157.782,48.148 C155.465,45.997 153.66,43.359 152.375,40.251 C151.088,37.131 150.442,33.587 150.442,29.607 C150.442,25.624 151.088,22.081 152.375,18.969 Z M190.582,12.506 C188.824,10.654 186.768,9.29 184.403,8.399 C182.037,7.508 179.471,7.062 176.711,7.062 C173.992,7.062 171.455,7.508 169.091,8.399 C166.726,9.29 164.67,10.654 162.912,12.506 C161.155,14.358 159.785,16.697 158.801,19.53 C157.817,22.362 157.327,25.725 157.327,29.607 C157.327,33.495 157.817,36.858 158.801,39.681 C159.785,42.517 161.155,44.863 162.912,46.709 C164.67,48.556 166.726,49.927 169.091,50.816 C171.455,51.705 173.992,52.152 176.711,52.152 C179.471,52.152 182.037,51.705 184.403,50.816 C186.768,49.927 188.824,48.556 190.582,46.709 C192.336,44.863 193.706,42.517 194.687,39.681 C195.672,36.858 196.168,33.495 196.168,29.607 C196.168,25.725 195.672,22.362 194.687,19.53 C193.706,16.697 192.336,14.358 190.582,12.506 Z" id="Fill-1" fill="#0D6EFD" fill-rule="nonzero"></path><path d="M146.163,30.097 C146.146,27.85 146.128,25.673 146.128,23.565 C146.128,20.475 146.187,17.448 146.304,14.471 C146.284,6.335 139.809,5.379 139.809,5.379 C139.949,8.47 140.076,11.497 140.195,14.471 C140.311,17.448 140.371,20.475 140.371,23.565 L140.371,42.877 C140.371,45.64 140.289,48.148 140.125,50.395 C139.96,52.643 139.572,54.587 138.967,56.228 C138.357,57.865 137.466,59.141 136.297,60.053 C136.297,60.053 134.541,61.74 131.138,63.387 C133.723,63.503 136.122,63 137.877,62.233 C139.631,61.456 141.142,60.388 142.408,59.034 C143.67,57.676 144.64,56.118 145.323,54.366 C146,52.606 146.345,50.675 146.345,48.568 C146.345,46.885 146.328,45.035 146.304,43.02 C146.284,41.007 146.258,38.909 146.233,36.736 C146.209,34.561 146.187,32.344 146.163,30.097 Z" id="Fill-2" fill="#0D6EFD" fill-rule="nonzero"></path><path d="M234.638,26.163 C237,26.124 239.446,26.072 241.975,26.024 L241.975,23.565 C241.975,20.475 241.915,17.448 241.802,14.471 C241.772,13.775 241.744,13.063 241.714,12.361 C241.741,6.771 247.807,5.482 248.294,5.386 C248.153,8.475 248.027,11.499 247.907,14.471 C247.789,17.448 247.736,20.475 247.736,23.565 L247.736,35.648 C247.736,38.738 247.789,41.781 247.907,44.778 C248.027,47.772 248.153,50.719 248.294,53.625 C247.811,53.535 241.775,52.25 241.717,46.695 C241.744,46.051 241.775,45.427 241.802,44.778 C241.915,41.781 241.975,38.738 241.975,35.648 L241.975,29.327 C239.446,29.279 237,29.247 234.638,29.22 C232.269,29.197 229.826,29.186 227.298,29.186 C224.77,29.186 217.9,29.26 215.532,29.285 C215.532,29.285 217.095,26.233 223.143,26.233 C225.671,26.233 232.269,26.211 234.638,26.163 Z" id="Fill-3" fill="#0D6EFD" fill-rule="nonzero"></path><path d="M206.861,35.648 C206.861,38.738 206.802,41.781 206.684,44.778 C206.567,47.772 206.441,50.719 206.296,53.625 C206.796,53.528 212.853,52.241 212.877,46.646 C212.853,46.02 212.819,45.411 212.795,44.778 C212.674,41.781 212.622,38.738 212.622,35.648 L212.622,23.565 C212.622,20.475 212.674,17.448 212.795,14.471 C212.826,13.641 212.862,12.798 212.899,11.958 C212.566,6.493 206.296,5.379 206.296,5.379 C206.441,8.47 206.567,11.497 206.684,14.471 C206.802,17.448 206.861,20.475 206.861,23.565 L206.861,35.648 Z" id="Fill-4" fill="#0D6EFD" fill-rule="nonzero"></path><path d="M277.824,35.401 C282.749,40.689 287.435,45.871 291.904,50.958 L291.906,50.955 C291.906,50.955 291.921,50.974 291.94,51.001 C292.574,51.717 293.196,52.432 293.812,53.145 C295.314,54.566 297.206,55.554 297.526,51.978 C297.526,50.906 297.515,49.679 297.493,48.253 C297.465,46.732 297.443,45.096 297.423,43.337 C297.393,41.582 297.372,39.837 297.351,38.106 C297.323,36.37 297.314,34.714 297.314,33.119 C297.314,31.483 297.314,30.074 297.314,28.904 C297.314,27.543 297.364,25.749 297.455,23.497 C297.548,21.249 297.656,18.957 297.77,16.616 C297.888,14.275 298.005,12.071 298.122,10.014 C298.233,8.052 298.335,6.576 298.424,5.551 C297.568,5.82 296.924,6.007 296.924,6.007 C296.924,6.007 292.568,7.547 292.619,13.165 C292.674,14.921 292.716,16.707 292.748,18.546 C292.82,23.203 292.856,27.988 292.856,32.907 L292.856,42.458 C290.702,40.309 288.181,37.7 285.302,34.627 C282.421,31.563 279.379,28.306 276.174,24.863 C273.216,21.69 262.961,11.476 258.834,7.136 C254.886,3.552 254.803,7.769 254.803,7.769 L254.799,7.769 C254.825,8.91 254.845,10.206 254.855,11.695 C254.875,14.928 254.886,18.792 254.886,23.285 C254.886,24.831 254.864,26.585 254.82,28.55 C254.773,30.52 254.713,32.534 254.641,34.591 C254.572,36.656 254.48,38.715 254.362,40.771 C254.26,42.574 254.17,44.233 254.086,45.798 C254.154,47.753 254.938,51.788 259.984,53.628 C259.937,53.253 259.893,52.538 259.841,51.485 C259.799,50.429 259.75,49.198 259.701,47.799 C259.66,46.39 259.609,44.874 259.564,43.23 C259.519,41.594 259.48,39.976 259.457,38.387 C259.435,36.797 259.413,35.275 259.386,33.825 C259.365,32.37 259.354,31.15 259.354,30.166 C259.354,26.376 259.374,23.378 259.421,21.179 C259.467,18.981 259.519,17.222 259.564,15.911 C265.65,22.374 271.733,28.872 277.824,35.401 Z" id="Fill-5" fill="#0D6EFD" fill-rule="nonzero"></path><path d="M430.633,18.91 C431.923,15.795 433.73,13.16 436.044,11.009 C438.358,8.856 441.133,7.217 444.364,6.095 C447.595,4.969 451.128,4.407 454.966,4.407 C458.856,4.407 462.416,4.969 465.644,6.095 C468.874,7.217 471.652,8.856 473.967,11.009 C476.283,13.16 478.086,15.795 479.375,18.91 C480.664,22.024 481.303,25.566 481.303,29.548 C481.303,33.529 480.664,37.073 479.375,40.192 C478.086,43.302 476.283,45.942 473.967,48.091 C471.652,50.245 468.874,51.849 465.644,52.903 C462.416,53.956 458.856,54.48 454.966,54.48 C451.128,54.48 447.595,53.956 444.364,52.903 C441.133,51.849 438.358,50.245 436.044,48.091 C433.73,45.942 431.923,43.302 430.633,40.192 C429.348,37.073 428.703,33.529 428.703,29.548 C428.703,25.566 429.348,22.024 430.633,18.91 Z M468.838,12.448 C467.085,10.595 465.02,9.229 462.662,8.341 C460.296,7.45 457.731,7.004 454.966,7.004 C452.253,7.004 449.714,7.45 447.349,8.341 C444.982,9.229 442.925,10.595 441.171,12.448 C439.414,14.3 438.044,16.639 437.058,19.472 C436.075,22.305 435.584,25.668 435.584,29.548 C435.584,33.437 436.075,36.796 437.058,39.623 C438.044,42.458 439.414,44.801 441.171,46.648 C442.925,48.496 444.982,49.869 447.349,50.756 C449.714,51.645 452.253,52.094 454.966,52.094 C457.731,52.094 460.296,51.645 462.662,50.756 C465.02,49.869 467.085,48.496 468.838,46.648 C470.595,44.801 471.966,42.458 472.95,39.623 C473.93,36.796 474.424,33.437 474.424,29.548 C474.424,25.668 473.93,22.305 472.95,19.472 C471.966,16.639 470.595,14.3 468.838,12.448 Z" id="Fill-6" fill="#0D6EFD" fill-rule="nonzero"></path><path d="M387.077,30.883 C384.664,29.058 381.378,28.052 377.208,27.861 L377.208,27.719 C380.719,26.928 383.563,25.545 385.744,23.579 C387.921,21.612 389.007,18.898 389.007,15.434 C389.007,13.466 388.609,11.826 387.815,10.513 C387.018,9.204 385.938,8.165 384.583,7.39 C383.228,6.62 381.656,6.084 379.878,5.777 C378.094,5.474 376.2,5.322 374.19,5.322 C372.969,5.322 371.731,5.377 370.466,5.495 C369.201,5.613 367.965,5.671 366.742,5.671 C365.667,5.671 364.561,5.634 363.447,5.579 C363.443,5.579 363.424,5.597 363.424,5.597 C363.424,5.597 359.605,5.588 359.605,12.27 L359.598,12.27 C359.623,12.948 359.662,13.631 359.685,14.313 C359.804,17.306 359.863,20.35 359.863,23.439 L359.863,35.52 C359.863,38.608 359.804,41.642 359.685,44.611 C359.57,47.589 359.44,50.572 359.3,53.567 C360.424,53.472 361.562,53.429 362.708,53.429 C363.852,53.429 364.988,53.429 366.112,53.429 C367.239,53.429 368.373,53.448 369.521,53.499 C370.666,53.542 371.802,53.567 372.927,53.567 C374.985,53.567 377.055,53.346 379.144,52.903 C381.226,52.456 383.131,51.683 384.866,50.585 C386.594,49.484 388.003,48.046 389.078,46.263 C390.157,44.482 390.693,42.285 390.693,39.661 C390.693,35.635 389.486,32.709 387.077,30.883 Z M380.863,48.122 C379.834,49.131 378.626,49.891 377.244,50.407 C375.864,50.924 374.422,51.184 372.927,51.184 C371.661,51.184 370.421,51.144 369.201,51.075 C367.986,51.003 366.929,50.924 366.044,50.827 C365.951,48.441 365.855,46.075 365.76,43.736 C365.668,41.389 365.624,39.031 365.624,36.641 L365.624,21.612 C365.624,19.366 365.668,17.144 365.76,14.94 C365.855,12.74 365.951,10.513 366.044,8.264 C366.697,8.177 367.446,8.094 368.291,8.025 C369.133,7.955 370.162,7.915 371.383,7.915 C372.739,7.915 374.094,8.025 375.457,8.235 C376.812,8.441 378.028,8.867 379.104,9.497 C380.182,10.131 381.074,11.02 381.776,12.166 C382.477,13.315 382.828,14.847 382.828,16.77 C382.828,18.731 382.441,20.363 381.671,21.649 C380.897,22.934 379.878,23.965 378.615,24.735 C377.346,25.513 375.91,26.065 374.296,26.386 C374.296,26.386 368.218,27.338 367.017,29.543 L368.78,29.48 C371.124,29.48 373.24,29.619 375.135,29.9 C377.034,30.176 378.657,30.686 380.02,31.407 C381.378,32.134 382.418,33.143 383.143,34.432 C383.869,35.716 384.232,37.368 384.232,39.38 C384.232,41.256 383.927,42.927 383.321,44.4 C382.711,45.879 381.89,47.117 380.863,48.122 Z" id="Fill-7" fill="#0D6EFD" fill-rule="nonzero"></path><path d="M423.246,30.883 C420.833,29.058 417.549,28.052 413.379,27.861 L413.379,27.719 C416.892,26.928 419.735,25.545 421.917,23.579 C424.091,21.612 425.179,18.898 425.179,15.434 C425.179,13.466 424.781,11.826 423.986,10.513 C423.189,9.204 422.109,8.165 420.753,7.39 C419.399,6.62 417.83,6.084 416.048,5.777 C414.266,5.474 412.371,5.322 410.362,5.322 C409.142,5.322 407.904,5.377 406.638,5.495 C405.374,5.613 404.133,5.671 402.915,5.671 C401.837,5.671 400.732,5.634 399.618,5.579 C399.614,5.579 399.596,5.597 399.596,5.597 C399.596,5.597 395.779,5.588 395.779,12.27 L395.77,12.27 C395.795,12.948 395.833,13.631 395.859,14.313 C395.975,17.306 396.035,20.35 396.035,23.439 L396.035,35.52 C396.035,38.608 395.975,41.642 395.859,44.611 C395.744,47.589 395.612,50.572 395.47,53.567 C396.594,53.472 397.734,53.429 398.879,53.429 C400.022,53.429 401.163,53.429 402.287,53.429 C403.408,53.429 404.543,53.448 405.69,53.499 C406.837,53.542 407.976,53.567 409.101,53.567 C411.156,53.567 413.225,53.346 415.315,52.903 C417.396,52.456 419.303,51.683 421.034,50.585 C422.766,49.484 424.173,48.046 425.252,46.263 C426.326,44.482 426.862,42.285 426.862,39.661 C426.862,35.635 425.659,32.709 423.246,30.883 Z M417.031,48.122 C416.007,49.131 414.799,49.891 413.416,50.407 C412.036,50.924 410.595,51.184 409.101,51.184 C407.832,51.184 406.591,51.144 405.374,51.075 C404.153,51.003 403.1,50.924 402.215,50.827 C402.122,48.441 402.029,46.075 401.931,43.736 C401.839,41.389 401.796,39.031 401.796,36.641 L401.796,21.612 C401.796,19.366 401.839,17.144 401.931,14.94 C402.029,12.74 402.122,10.513 402.215,8.264 C402.871,8.177 403.619,8.094 404.462,8.025 C405.301,7.955 406.335,7.915 407.554,7.915 C408.91,7.915 410.264,8.025 411.628,8.235 C412.983,8.441 414.202,8.867 415.277,9.497 C416.354,10.131 417.247,11.02 417.945,12.166 C418.648,13.315 418.998,14.847 418.998,16.77 C418.998,18.731 418.612,20.363 417.843,21.649 C417.068,22.934 416.048,23.965 414.786,24.735 C413.519,25.513 412.083,26.065 410.466,26.386 C410.466,26.386 404.389,27.338 403.188,29.543 L404.953,29.48 C407.296,29.48 409.413,29.619 411.307,29.9 C413.206,30.176 414.828,30.686 416.191,31.407 C417.549,32.134 418.591,33.143 419.316,34.432 C420.04,35.716 420.404,37.368 420.404,39.38 C420.404,41.256 420.098,42.927 419.49,44.4 C418.883,45.879 418.061,47.117 417.031,48.122 Z" id="Fill-8" fill="#0D6EFD" fill-rule="nonzero"></path><path d="M349.465,41.313 C348.268,38.574 346.995,35.612 345.639,32.427 C344.276,29.242 342.918,26.035 341.565,22.804 C340.204,19.576 338.873,16.383 337.563,13.22 C336.253,10.058 335.032,7.123 333.906,4.407 C331.811,4.21 329.666,7.879 328.492,10.264 C325.71,16.625 322.933,22.931 320.173,29.127 C317.654,34.785 315.073,40.472 312.465,46.178 C312.465,46.178 310.494,50.245 315.785,53.567 C316.392,51.412 317.311,48.687 318.529,45.386 C319.744,42.082 321.102,38.608 322.6,34.962 L323.934,31.725 L331.591,13.884 L339.386,31.725 C338.074,31.77 336.76,31.81 335.45,31.83 C334.14,31.855 332.83,31.853 331.521,31.864 C326.315,31.918 325.003,34.885 325.003,34.885 C326.407,34.857 329.715,34.818 331.168,34.818 C332.718,34.818 334.262,34.829 335.806,34.851 C337.347,34.877 338.873,34.907 340.371,34.962 C340.978,36.5 341.633,38.128 342.337,39.835 C343.037,41.549 343.73,43.232 344.409,44.895 C344.79,45.829 345.144,46.728 345.488,47.617 C346.316,49.171 349.133,53.471 354.835,53.588 C354.909,53.584 354.977,53.56 355.046,53.567 C354.438,52.441 353.652,50.809 352.694,48.651 C351.734,46.497 350.658,44.052 349.465,41.313 Z" id="Fill-9" fill="#0D6EFD" fill-rule="nonzero"></path><path d="M544.667,5.565 C541.718,5.635 539.675,5.671 536.586,5.671 C533.499,5.671 527.912,5.635 524.963,5.565 C517.174,5.435 515.907,9.743 515.907,9.743 C516.888,9.602 518,9.485 519.24,9.392 C520.482,9.303 521.773,9.215 523.103,9.147 C524.441,9.079 526.824,9.028 528.15,9.008 C529.489,8.983 530.767,8.968 531.98,8.968 C532.123,13.795 532.191,18.641 532.191,23.508 L532.191,35.59 C532.191,38.68 532.133,41.724 532.013,44.722 C531.904,47.719 531.771,50.662 531.628,53.567 C531.628,53.567 538.345,52.371 538.597,42.627 C538.531,40.307 538.489,37.966 538.489,35.59 L538.489,23.508 C538.489,18.641 538.55,13.795 538.694,8.968 C539.912,8.968 541.191,8.983 542.519,9.008 C543.855,9.028 545.194,9.079 546.526,9.147 C546.879,9.166 547.208,9.188 547.56,9.209 C553.674,9.278 555.468,5.433 555.468,5.433 C552.382,5.523 547.61,5.495 544.667,5.565 Z" id="Fill-10" fill="#0D6EFD" fill-rule="nonzero"></path><g id="Group-16" transform="translate(150.000000, 5.000000)"><g id="Fill-11-Clipped"><mask id="mask-2" fill="white"><use xlink:href="#path-1"></use></mask><g id="path-2"></g><path d="M366.506,0.433 C363.418,0.523 359.241,0.495 356.291,0.565 C353.339,0.635 351.299,0.671 348.212,0.671 C345.123,0.671 339.075,0.635 336.124,0.565 C328.338,0.435 327.067,4.743 327.067,4.743 C328.048,4.602 329.164,4.485 330.402,4.392 C331.642,4.303 332.934,4.215 334.261,4.147 C335.6,4.079 338.448,4.028 339.777,4.008 C341.116,3.983 342.39,3.968 343.606,3.968 C343.747,8.795 343.816,13.641 343.816,18.508 L343.816,30.59 C343.816,33.68 343.756,36.724 343.636,39.722 C343.525,42.719 343.394,45.662 343.254,48.567 C343.254,48.567 349.97,47.371 350.223,37.627 C350.155,35.307 350.116,32.966 350.116,30.59 L350.116,18.508 C350.116,13.641 350.179,8.795 350.32,3.968 C351.54,3.968 352.815,3.983 354.146,4.008 C355.483,4.028 356.228,4.079 357.556,4.147 C357.917,4.166 358.243,4.188 358.593,4.209 C364.706,4.278 366.506,0.433 366.506,0.433" id="Fill-11" fill="#1C1B19" fill-rule="nonzero" mask="url(#mask-2)"></path></g><g id="Fill-13-Clipped"><mask id="mask-4" fill="white"><use xlink:href="#path-3"></use></mask><g id="path-2"></g><path d="M112.998,64.949 C113.542,63.629 114.303,62.521 115.284,61.611 C116.263,60.702 117.432,60.01 118.797,59.534 C120.164,59.058 121.654,58.821 123.278,58.821 C124.92,58.821 126.424,59.058 127.789,59.534 C129.153,60.01 130.327,60.702 131.305,61.611 C132.287,62.521 133.046,63.629 133.592,64.949 C134.133,66.263 134.41,67.76 134.41,69.443 C134.41,71.124 134.133,72.623 133.592,73.937 C133.046,75.252 132.287,76.366 131.305,77.279 C130.327,78.184 129.153,78.865 127.789,79.306 C126.424,79.756 124.92,79.979 123.278,79.979 C121.654,79.979 120.164,79.756 118.797,79.306 C117.432,78.865 116.263,78.184 115.284,77.279 C114.303,76.366 113.542,75.252 112.998,73.937 C112.455,72.623 112.183,71.124 112.183,69.443 C112.183,67.76 112.455,66.263 112.998,64.949 Z M130.874,65.184 C130.46,63.99 129.88,63 129.137,62.218 C128.398,61.437 127.526,60.856 126.528,60.481 C125.53,60.11 124.445,59.919 123.278,59.919 C122.132,59.919 121.059,60.11 120.059,60.481 C119.062,60.856 118.191,61.437 117.447,62.218 C116.709,63 116.126,63.99 115.712,65.184 C115.296,66.383 115.09,67.802 115.09,69.443 C115.09,71.087 115.296,72.505 115.712,73.699 C116.126,74.896 116.709,75.885 117.447,76.667 C118.191,77.448 119.062,78.025 120.059,78.402 C121.059,78.781 122.132,78.965 123.278,78.965 C124.445,78.965 125.53,78.781 126.528,78.402 C127.526,78.025 128.398,77.448 129.137,76.667 C129.88,75.885 130.46,74.896 130.874,73.699 C131.291,72.505 131.496,71.087 131.496,69.443 C131.496,67.802 131.291,66.383 130.874,65.184 L130.874,65.184 Z" id="Fill-13" fill="#1C1B19" fill-rule="nonzero" mask="url(#mask-4)"></path></g><g id="Fill-14-Clipped"><mask id="mask-6" fill="white"><use xlink:href="#path-5"></use></mask><g id="path-2"></g><path d="M14.404,78.336 L14.404,78.332 C14.056,78.476 13.695,78.611 13.308,78.727 C12.706,78.905 12.048,78.989 11.334,78.989 C10.167,78.989 9.083,78.803 8.085,78.427 C7.086,78.055 6.216,77.471 5.474,76.69 C4.732,75.909 4.153,74.919 3.737,73.723 C3.325,72.53 3.117,71.11 3.117,69.462 C3.117,67.823 3.325,66.405 3.737,65.21 C4.153,64.011 4.732,63.023 5.474,62.241 C6.216,61.459 7.086,60.879 8.085,60.503 C9.083,60.131 10.167,59.942 11.334,59.942 C12.048,59.942 12.7,60.038 13.292,60.223 C13.398,60.257 13.492,60.298 13.596,60.336 L13.597,60.329 C13.597,60.329 16.695,61.624 17.772,60.211 C16.942,59.833 15.987,59.51 14.91,59.242 C13.832,58.976 12.638,58.842 11.334,58.842 C9.694,58.842 8.191,59.082 6.825,59.555 C5.459,60.034 4.288,60.727 3.308,61.633 C2.328,62.544 1.568,63.655 1.023,64.97 C0.478,66.29 0.21,67.785 0.21,69.462 C0.21,71.148 0.478,72.645 1.023,73.963 C1.568,75.275 2.32,76.39 3.278,77.3 C4.239,78.209 5.38,78.886 6.706,79.33 C8.031,79.779 9.475,79.999 11.037,79.999 C11.768,79.999 12.47,79.94 13.143,79.824 C13.814,79.702 14.426,79.566 14.968,79.421 C15.513,79.274 15.978,79.105 16.365,78.917 C16.752,78.733 17.033,78.555 17.21,78.397 C16.154,77.557 14.404,78.336 14.404,78.336" id="Fill-14" fill="#1C1B19" fill-rule="nonzero" mask="url(#mask-6)"></path></g><g id="Fill-15-Clipped"><mask id="mask-8" fill="white"><use xlink:href="#path-7"></use></mask><g id="path-2"></g><path d="M109.479,78.336 L109.479,78.332 C109.13,78.476 108.769,78.611 108.384,78.727 C107.781,78.905 107.123,78.989 106.41,78.989 C105.244,78.989 104.159,78.803 103.161,78.427 C102.16,78.055 101.291,77.471 100.549,76.69 C99.808,75.909 99.229,74.919 98.813,73.723 C98.4,72.53 98.193,71.11 98.193,69.462 C98.193,67.823 98.4,66.405 98.813,65.21 C99.229,64.011 99.808,63.023 100.549,62.241 C101.291,61.459 102.16,60.879 103.161,60.503 C104.159,60.131 105.244,59.942 106.41,59.942 C107.123,59.942 107.775,60.038 108.367,60.223 C108.472,60.257 108.568,60.298 108.671,60.336 L108.674,60.329 C108.674,60.329 111.77,61.624 112.847,60.211 C112.015,59.833 111.063,59.51 109.986,59.242 C108.908,58.976 107.713,58.842 106.41,58.842 C104.77,58.842 103.267,59.082 101.901,59.555 C100.536,60.034 99.362,60.727 98.385,61.633 C97.404,62.544 96.643,63.655 96.099,64.97 C95.552,66.29 95.284,67.785 95.284,69.462 C95.284,71.148 95.552,72.645 96.099,73.963 C96.643,75.275 97.395,76.39 98.356,77.3 C99.314,78.209 100.455,78.886 101.78,79.33 C103.106,79.779 104.551,79.999 106.112,79.999 C106.843,79.999 107.546,79.94 108.22,79.824 C108.891,79.702 109.502,79.566 110.045,79.421 C110.59,79.274 111.054,79.105 111.44,78.917 C111.827,78.733 112.108,78.555 112.284,78.397 C111.229,77.557 109.479,78.336 109.479,78.336" id="Fill-15" fill="#1C1B19" fill-rule="nonzero" mask="url(#mask-8)"></path></g></g><path d="M180.178,64.25 C180.178,64.246 180.178,64.238 180.18,64.233 C179.29,64.271 178.41,64.301 177.54,64.336 C176.67,64.363 175.789,64.376 174.899,64.376 C174.191,64.376 173.488,64.363 172.784,64.343 C172.626,64.351 172.453,64.351 172.242,64.336 C169.461,64.132 169.684,66.232 169.684,66.232 C169.701,66.828 169.729,67.427 169.753,68.029 C169.8,69.295 169.826,70.577 169.826,71.885 L169.826,76.992 C169.826,78.292 169.8,79.576 169.753,80.831 C169.702,82.088 169.648,83.346 169.589,84.613 C170.497,84.573 171.4,84.554 172.289,84.554 C173.178,84.554 174.078,84.554 174.986,84.554 C175.897,84.554 176.792,84.554 177.674,84.554 C178.553,84.554 179.437,84.573 180.328,84.613 C180.328,84.613 179.792,83.189 177.52,83.233 C177.449,83.234 177.391,83.229 177.327,83.226 C177.089,83.242 176.852,83.253 176.605,83.263 C175.883,83.297 175.146,83.308 174.396,83.308 C173.663,83.308 172.971,83.308 172.317,83.308 C172.297,82.934 172.284,82.376 172.274,81.647 C172.261,80.916 172.258,79.985 172.258,78.857 L172.258,75.919 C172.258,75.603 172.261,75.337 172.274,75.135 C172.284,74.925 172.289,74.731 172.289,74.556 C172.643,74.556 173.126,74.559 173.726,74.569 C174.331,74.581 174.975,74.59 175.655,74.597 C176.339,74.609 177.021,74.633 177.705,74.677 C178.386,74.712 178.983,74.761 179.496,74.823 C179.496,74.823 179.004,73.201 176.532,73.205 C175.957,73.233 175.324,73.26 174.632,73.28 C173.939,73.298 173.161,73.307 172.289,73.307 C172.289,72.934 172.284,72.378 172.274,71.648 C172.261,70.916 172.258,70.166 172.258,69.393 C172.258,68.662 172.274,68.005 172.302,67.433 C172.332,66.86 172.357,66.258 172.378,65.624 C173.346,65.624 174.177,65.64 174.87,65.668 C174.87,65.668 176.603,65.791 177.187,65.773 C179.844,65.692 180.149,64.421 180.178,64.25 Z" id="Fill-17" fill="#0D6EFD" fill-rule="nonzero"></path><g id="Group-21" transform="translate(181.000000, 63.000000)"><g id="Fill-18-Clipped"><mask id="mask-10" fill="white"><use xlink:href="#path-9"></use></mask><g id="path-4"></g><path d="M29.591,2.773 C32.248,2.692 32.553,1.421 32.581,1.25 C32.583,1.246 32.583,1.238 32.585,1.233 C31.696,1.271 30.814,1.301 29.943,1.336 C29.075,1.363 28.194,1.376 27.304,1.376 C26.595,1.376 25.892,1.363 25.19,1.343 C25.031,1.351 24.856,1.351 24.647,1.336 C21.865,1.132 22.089,3.232 22.089,3.232 L22.078,3.229 C22.106,3.828 22.134,4.427 22.159,5.029 C22.205,6.295 22.232,7.577 22.232,8.885 L22.232,13.992 C22.232,15.292 22.205,16.576 22.159,17.831 C22.106,19.088 22.051,20.346 21.993,21.613 C22.903,21.573 23.803,21.554 24.694,21.554 C25.583,21.554 26.482,21.554 27.391,21.554 C28.302,21.554 29.198,21.554 30.08,21.554 C30.958,21.554 31.841,21.573 32.732,21.613 C32.732,21.613 32.197,20.189 29.925,20.233 C29.853,20.234 29.797,20.229 29.73,20.226 C29.492,20.242 29.256,20.253 29.01,20.263 C28.288,20.297 27.551,20.308 26.8,20.308 C26.067,20.308 25.376,20.308 24.722,20.308 C24.701,19.934 24.688,19.376 24.678,18.647 C24.666,17.916 24.662,16.985 24.662,15.857 L24.662,12.919 C24.662,12.603 24.666,12.337 24.678,12.135 C24.688,11.925 24.694,11.731 24.694,11.556 C25.048,11.556 25.528,11.559 26.132,11.569 C26.736,11.581 27.379,11.59 28.06,11.597 C28.742,11.609 29.425,11.633 30.108,11.677 C30.79,11.712 31.388,11.761 31.9,11.823 C31.9,11.823 31.407,10.201 28.937,10.205 C28.361,10.233 27.728,10.26 27.037,10.28 C26.344,10.298 25.564,10.307 24.694,10.307 C24.694,9.934 24.688,9.378 24.678,8.648 C24.666,7.916 24.662,7.166 24.662,6.393 C24.662,5.662 24.678,5.005 24.707,4.433 C24.737,3.86 24.762,3.258 24.784,2.624 C25.75,2.624 26.582,2.64 27.275,2.668 C27.275,2.668 29.008,2.791 29.591,2.773" id="Fill-18" fill="#1C1B19" fill-rule="nonzero" mask="url(#mask-10)"></path></g><g id="Fill-20-Clipped"><mask id="mask-12" fill="white"><use xlink:href="#path-11"></use></mask><g id="path-4"></g><path d="M17.072,15.459 C17.071,15.47 17.07,15.474 17.07,15.487 C17.074,15.757 17.087,16.029 17.087,16.302 C17.087,16.914 17.084,17.519 17.073,18.111 C17.064,18.707 17.05,19.3 17.029,19.892 C16.774,20.055 16.46,20.189 16.092,20.308 C15.73,20.427 15.334,20.524 14.909,20.603 C14.479,20.682 14.043,20.745 13.587,20.784 C13.13,20.824 12.696,20.84 12.28,20.84 C10.899,20.84 9.654,20.623 8.56,20.189 C7.46,19.753 6.532,19.135 5.77,18.335 C5.008,17.529 4.429,16.55 4.031,15.382 C3.636,14.218 3.44,12.914 3.44,11.462 C3.44,9.823 3.665,8.405 4.106,7.21 C4.554,6.011 5.165,5.023 5.947,4.241 C6.729,3.459 7.648,2.879 8.708,2.503 C9.763,2.131 10.904,1.942 12.132,1.942 C12.884,1.942 13.592,2.027 14.255,2.196 C14.916,2.363 15.523,2.581 16.065,2.851 C18.697,4.203 19.698,2.563 19.698,2.563 C19.344,2.386 18.937,2.201 18.483,1.998 C18.028,1.804 17.5,1.618 16.895,1.437 C16.292,1.261 15.6,1.114 14.818,1.008 C14.038,0.902 13.142,0.842 12.132,0.842 C10.394,0.842 8.804,1.082 7.369,1.555 C5.936,2.034 4.717,2.727 3.705,3.633 C2.695,4.544 1.916,5.655 1.363,6.97 C0.808,8.29 0.533,9.785 0.533,11.462 C0.533,13.207 0.798,14.74 1.333,16.067 C1.867,17.393 2.631,18.5 3.618,19.386 C4.608,20.278 5.809,20.937 7.222,21.362 C8.637,21.787 10.224,21.999 11.986,21.999 C12.559,21.999 13.195,21.953 13.897,21.865 C14.601,21.779 15.306,21.677 16.005,21.566 C16.706,21.46 17.372,21.324 17.993,21.151 C18.615,20.987 19.133,20.824 19.551,20.665 C19.551,20.268 19.546,19.867 19.535,19.464 C19.525,19.056 19.521,18.658 19.521,18.26 C19.521,16.659 19.53,15.369 19.551,14.39 C19.568,13.486 19.598,12.819 19.632,12.358 L19.626,12.354 C19.626,12.354 17.145,12.406 17.072,15.459" id="Fill-20" fill="#1C1B19" fill-rule="nonzero" mask="url(#mask-12)"></path></g></g><path d="M323.72,64.25 C323.72,64.246 323.72,64.238 323.721,64.233 C322.833,64.271 321.952,64.301 321.081,64.336 C320.213,64.363 319.332,64.376 318.439,64.376 C317.734,64.376 317.031,64.363 316.328,64.343 C316.168,64.351 315.998,64.351 315.783,64.336 C313.003,64.132 313.227,66.232 313.227,66.232 L313.216,66.229 C313.245,66.828 313.272,67.427 313.296,68.029 C313.344,69.295 313.368,70.577 313.368,71.885 L313.368,76.992 C313.368,78.292 313.344,79.576 313.296,80.831 C313.245,82.088 313.189,83.346 313.13,84.613 C314.043,84.573 314.942,84.554 315.832,84.554 C316.718,84.554 317.621,84.554 318.529,84.554 C319.44,84.554 320.335,84.554 321.218,84.554 C322.098,84.554 322.978,84.573 323.87,84.613 C323.87,84.613 323.337,83.189 321.061,83.233 C320.994,83.234 320.932,83.229 320.869,83.226 C320.631,83.242 320.393,83.253 320.148,83.263 C319.425,83.297 318.687,83.308 317.938,83.308 C317.204,83.308 316.512,83.308 315.858,83.308 C315.841,82.934 315.824,82.376 315.815,81.647 C315.806,80.916 315.801,79.985 315.801,78.857 L315.801,75.919 C315.801,75.603 315.806,75.337 315.815,75.135 C315.824,74.925 315.832,74.731 315.832,74.556 C316.186,74.556 316.667,74.559 317.27,74.569 C317.875,74.581 318.516,74.59 319.195,74.597 C319.882,74.609 320.563,74.633 321.247,74.677 C321.925,74.712 322.527,74.761 323.038,74.823 C323.038,74.823 322.545,73.201 320.074,73.205 C319.5,73.233 318.866,73.26 318.174,73.28 C317.482,73.298 316.702,73.307 315.832,73.307 C315.832,72.934 315.824,72.378 315.815,71.648 C315.806,70.916 315.801,70.166 315.801,69.393 C315.801,68.662 315.815,68.005 315.846,67.433 C315.875,66.86 315.898,66.258 315.92,65.624 C316.886,65.624 317.717,65.64 318.413,65.668 C318.413,65.668 320.147,65.791 320.73,65.773 C323.388,65.692 323.692,64.421 323.72,64.25 Z" id="Fill-22" fill="#0D6EFD" fill-rule="nonzero"></path><g id="Group-26" transform="translate(325.000000, 63.000000)"><g id="Fill-23-Clipped"><mask id="mask-14" fill="white"><use xlink:href="#path-13"></use></mask><g id="path-6"></g><path d="M29.466,2.773 C32.121,2.692 32.429,1.421 32.457,1.25 C32.46,1.246 32.46,1.238 32.462,1.233 C31.572,1.271 30.689,1.301 29.821,1.336 C28.95,1.363 28.069,1.376 27.18,1.376 C26.47,1.376 25.768,1.363 25.065,1.343 C24.906,1.351 24.732,1.351 24.52,1.336 C21.741,1.132 21.963,3.232 21.963,3.232 L21.956,3.229 C21.983,3.828 22.008,4.427 22.035,5.029 C22.08,6.295 22.109,7.577 22.109,8.885 L22.109,13.992 C22.109,15.292 22.08,16.576 22.035,17.831 C21.983,19.088 21.925,20.346 21.87,21.613 C22.78,21.573 23.68,21.554 24.573,21.554 C25.459,21.554 26.358,21.554 27.267,21.554 C28.177,21.554 29.074,21.554 29.956,21.554 C30.833,21.554 31.716,21.573 32.607,21.613 C32.607,21.613 32.072,20.189 29.799,20.233 C29.728,20.234 29.671,20.229 29.608,20.226 C29.367,20.242 29.133,20.253 28.888,20.263 C28.164,20.297 27.427,20.308 26.675,20.308 C25.943,20.308 25.251,20.308 24.598,20.308 C24.576,19.934 24.563,19.376 24.555,18.647 C24.541,17.916 24.538,16.985 24.538,15.857 L24.538,12.919 C24.538,12.603 24.541,12.337 24.555,12.135 C24.563,11.925 24.573,11.731 24.573,11.556 C24.923,11.556 25.406,11.559 26.008,11.569 C26.614,11.581 27.254,11.59 27.935,11.597 C28.619,11.609 29.3,11.633 29.984,11.677 C30.667,11.712 31.265,11.761 31.777,11.823 C31.777,11.823 31.283,10.201 28.813,10.205 C28.237,10.233 27.605,10.26 26.914,10.28 C26.219,10.298 25.441,10.307 24.573,10.307 C24.573,9.934 24.563,9.378 24.555,8.648 C24.541,7.916 24.538,7.166 24.538,6.393 C24.538,5.662 24.555,5.005 24.585,4.433 C24.612,3.86 24.635,3.258 24.656,2.624 C25.626,2.624 26.457,2.64 27.148,2.668 C27.148,2.668 28.883,2.791 29.466,2.773" id="Fill-23" fill="#1C1B19" fill-rule="nonzero" mask="url(#mask-14)"></path></g><g id="Fill-25-Clipped"><mask id="mask-16" fill="white"><use xlink:href="#path-15"></use></mask><g id="path-6"></g><path d="M16.615,15.459 C16.615,15.47 16.611,15.474 16.611,15.487 C16.618,15.757 16.63,16.029 16.63,16.302 C16.63,16.914 16.625,17.519 16.615,18.111 C16.604,18.707 16.59,19.3 16.572,19.892 C16.313,20.055 16.002,20.189 15.635,20.308 C15.27,20.427 14.876,20.524 14.451,20.603 C14.021,20.682 13.584,20.745 13.13,20.784 C12.671,20.824 12.239,20.84 11.823,20.84 C10.441,20.84 9.198,20.623 8.105,20.189 C7.001,19.753 6.073,19.135 5.309,18.335 C4.551,17.529 3.971,16.55 3.573,15.382 C3.179,14.218 2.984,12.914 2.984,11.462 C2.984,9.823 3.209,8.405 3.649,7.21 C4.095,6.011 4.708,5.023 5.489,4.241 C6.269,3.459 7.189,2.879 8.249,2.503 C9.305,2.131 10.446,1.942 11.675,1.942 C12.426,1.942 13.132,2.027 13.797,2.196 C14.459,2.363 15.065,2.581 15.608,2.851 C18.239,4.203 19.242,2.563 19.242,2.563 C18.885,2.386 18.479,2.201 18.024,1.998 C17.57,1.804 17.041,1.618 16.436,1.437 C15.836,1.261 15.14,1.114 14.359,1.008 C13.579,0.902 12.684,0.842 11.675,0.842 C9.935,0.842 8.346,1.082 6.912,1.555 C5.476,2.034 4.258,2.727 3.25,3.633 C2.236,4.544 1.459,5.655 0.907,6.97 C0.35,8.29 0.075,9.785 0.075,11.462 C0.075,13.207 0.341,14.74 0.876,16.067 C1.411,17.393 2.172,18.5 3.158,19.386 C4.151,20.278 5.35,20.937 6.764,21.362 C8.178,21.787 9.765,21.999 11.528,21.999 C12.1,21.999 12.738,21.953 13.441,21.865 C14.143,21.779 14.847,21.677 15.547,21.566 C16.248,21.46 16.914,21.324 17.535,21.151 C18.157,20.987 18.677,20.824 19.091,20.665 C19.091,20.268 19.088,19.867 19.077,19.464 C19.068,19.056 19.064,18.658 19.064,18.26 C19.064,16.659 19.074,15.369 19.091,14.39 C19.111,13.486 19.139,12.819 19.174,12.358 L19.169,12.354 C19.169,12.354 16.687,12.406 16.615,15.459" id="Fill-25" fill="#1C1B19" fill-rule="nonzero" mask="url(#mask-16)"></path></g></g><path d="M228.104,65.741 C227.717,65.366 227.288,65.081 226.812,64.884 C226.335,64.683 225.859,64.536 225.372,64.437 C224.888,64.337 224.431,64.279 223.995,64.261 C223.559,64.242 223.192,64.233 222.898,64.233 C222.677,64.233 222.411,64.242 222.096,64.261 C221.779,64.279 221.447,64.295 221.102,64.301 C220.756,64.31 220.414,64.329 220.077,64.348 C219.74,64.366 219.456,64.376 219.216,64.376 C218.74,64.376 218.262,64.363 217.778,64.336 C217.292,64.301 216.814,64.271 216.341,64.233 C216.398,65.536 216.453,66.817 216.503,68.072 C216.549,69.328 216.578,70.609 216.578,71.913 L216.578,77.02 C216.578,78.325 216.549,79.61 216.503,80.873 C216.453,82.143 216.398,83.387 216.341,84.613 C216.341,84.613 219.067,83.614 219.067,80.447 C219.067,80.433 219.069,80.421 219.069,80.408 C219.031,79.29 219.009,78.166 219.009,77.02 L219.009,65.329 L221.681,65.329 C222.453,65.329 223.144,65.383 223.757,65.488 C224.368,65.599 224.888,65.804 225.315,66.099 C225.738,66.396 226.072,66.808 226.31,67.348 C226.548,67.879 226.663,68.574 226.663,69.423 C226.663,70.43 226.493,71.254 226.146,71.899 C225.796,72.543 225.354,73.047 224.81,73.414 C224.265,73.779 223.68,74.105 223.014,74.17 C220.792,74.4 220.069,75.389 220.069,75.389 L221.411,75.477 C222.127,75.477 222.941,75.396 223.861,75.234 C224.78,75.082 225.649,74.775 226.472,74.32 C227.295,73.865 227.984,73.227 228.548,72.42 C229.112,71.607 229.395,70.55 229.395,69.245 C229.395,68.415 229.275,67.719 229.038,67.151 C228.799,66.586 228.489,66.119 228.104,65.741 Z" id="Fill-27" fill="#0D6EFD" fill-rule="nonzero"></path><path d="M293.865,83.225 C293.727,83.229 293.585,83.236 293.448,83.242 C292.164,83.27 290.82,83.289 289.413,83.289 C289.395,81.839 289.376,80.206 289.356,78.374 C289.337,76.542 289.327,74.38 289.327,71.89 C289.327,70.609 289.348,69.353 289.395,68.121 C289.376,67.958 289.36,67.775 289.356,67.551 C289.298,64.826 286.654,64.212 286.654,64.212 C286.715,65.514 286.769,66.793 286.817,68.05 C286.866,69.306 286.895,70.585 286.895,71.89 L286.895,76.994 C286.895,78.299 286.866,79.588 286.817,80.853 C286.769,82.117 286.715,83.365 286.654,84.59 C287.602,84.551 288.522,84.53 289.397,84.53 C290.281,84.53 291.194,84.53 292.143,84.53 C293.053,84.53 293.963,84.53 294.876,84.53 C295.782,84.53 296.694,84.551 297.604,84.59 C297.604,84.59 297.025,83.17 293.915,83.225 C293.896,83.225 293.884,83.225 293.865,83.225 Z" id="Fill-28" fill="#0D6EFD" fill-rule="nonzero"></path><path d="M152.375,18.969 C153.66,15.854 155.465,13.221 157.782,11.067 C160.099,8.915 162.874,7.275 166.105,6.153 C169.336,5.028 172.868,4.463 176.711,4.463 C180.596,4.463 184.151,5.028 187.383,6.153 C190.613,7.275 193.391,8.915 195.71,11.067 C198.024,13.221 199.827,15.854 201.116,18.969 C202.401,22.081 203.045,25.624 203.045,29.607 C203.045,33.587 202.401,37.131 201.116,40.251 C199.827,43.359 198.024,45.997 195.71,48.148 C193.391,50.301 190.613,51.906 187.383,52.962 C184.151,54.014 180.596,54.538 176.711,54.538 C172.868,54.538 169.336,54.014 166.105,52.962 C162.874,51.906 160.099,50.301 157.782,48.148 C155.465,45.997 153.66,43.359 152.375,40.251 C151.088,37.131 150.442,33.587 150.442,29.607 C150.442,25.624 151.088,22.081 152.375,18.969 Z M190.582,12.506 C188.824,10.654 186.768,9.29 184.403,8.399 C182.037,7.508 179.471,7.062 176.711,7.062 C173.992,7.062 171.455,7.508 169.091,8.399 C166.726,9.29 164.67,10.654 162.912,12.506 C161.155,14.358 159.785,16.697 158.801,19.53 C157.817,22.362 157.327,25.725 157.327,29.607 C157.327,33.495 157.817,36.858 158.801,39.681 C159.785,42.517 161.155,44.863 162.912,46.709 C164.67,48.556 166.726,49.927 169.091,50.816 C171.455,51.705 173.992,52.152 176.711,52.152 C179.471,52.152 182.037,51.705 184.403,50.816 C186.768,49.927 188.824,48.556 190.582,46.709 C192.336,44.863 193.706,42.517 194.687,39.681 C195.672,36.858 196.168,33.495 196.168,29.607 C196.168,25.725 195.672,22.362 194.687,19.53 C193.706,16.697 192.336,14.358 190.582,12.506 Z" id="Fill-29" fill="#0D6EFD" fill-rule="nonzero"></path><path d="M146.163,30.097 C146.146,27.85 146.128,25.673 146.128,23.565 C146.128,20.475 146.187,17.448 146.304,14.471 C146.284,6.335 139.809,5.379 139.809,5.379 C139.949,8.47 140.076,11.497 140.195,14.471 C140.311,17.448 140.371,20.475 140.371,23.565 L140.371,42.877 C140.371,45.64 140.289,48.148 140.125,50.395 C139.96,52.643 139.572,54.587 138.967,56.228 C138.357,57.865 137.466,59.141 136.297,60.053 C136.297,60.053 134.541,61.74 131.138,63.387 C133.723,63.503 136.122,63 137.877,62.233 C139.631,61.456 141.142,60.388 142.408,59.034 C143.67,57.676 144.64,56.118 145.323,54.366 C146,52.606 146.345,50.675 146.345,48.568 C146.345,46.885 146.328,45.035 146.304,43.02 C146.284,41.007 146.258,38.909 146.233,36.736 C146.209,34.561 146.187,32.344 146.163,30.097 Z" id="Fill-30" fill="#0D6EFD" fill-rule="nonzero"></path><path d="M234.638,26.163 C237,26.124 239.446,26.072 241.975,26.024 L241.975,23.565 C241.975,20.475 241.915,17.448 241.802,14.471 C241.772,13.775 241.744,13.063 241.714,12.361 C241.741,6.771 247.807,5.482 248.294,5.386 C248.153,8.475 248.027,11.499 247.907,14.471 C247.789,17.448 247.736,20.475 247.736,23.565 L247.736,35.648 C247.736,38.738 247.789,41.781 247.907,44.778 C248.027,47.772 248.153,50.719 248.294,53.625 C247.811,53.535 241.775,52.25 241.717,46.695 C241.744,46.051 241.775,45.427 241.802,44.778 C241.915,41.781 241.975,38.738 241.975,35.648 L241.975,29.327 C239.446,29.279 237,29.247 234.638,29.22 C232.269,29.197 229.826,29.186 227.298,29.186 C224.77,29.186 217.9,29.26 215.532,29.285 C215.532,29.285 217.095,26.233 223.143,26.233 C225.671,26.233 232.269,26.211 234.638,26.163 Z" id="Fill-31" fill="#0D6EFD" fill-rule="nonzero"></path><path d="M206.861,35.648 C206.861,38.738 206.802,41.781 206.684,44.778 C206.567,47.772 206.441,50.719 206.296,53.625 C206.796,53.528 212.853,52.241 212.877,46.646 C212.853,46.02 212.819,45.411 212.795,44.778 C212.674,41.781 212.622,38.738 212.622,35.648 L212.622,23.565 C212.622,20.475 212.674,17.448 212.795,14.471 C212.826,13.641 212.862,12.798 212.899,11.958 C212.566,6.493 206.296,5.379 206.296,5.379 C206.441,8.47 206.567,11.497 206.684,14.471 C206.802,17.448 206.861,20.475 206.861,23.565 L206.861,35.648 Z" id="Fill-32" fill="#0D6EFD" fill-rule="nonzero"></path><path d="M277.824,35.401 C282.749,40.689 287.435,45.871 291.904,50.958 L291.906,50.955 C291.906,50.955 291.921,50.974 291.94,51.001 C292.574,51.717 293.196,52.432 293.812,53.145 C295.314,54.566 297.206,55.554 297.526,51.978 C297.526,50.906 297.515,49.679 297.493,48.253 C297.465,46.732 297.443,45.096 297.423,43.337 C297.393,41.582 297.372,39.837 297.351,38.106 C297.323,36.37 297.314,34.714 297.314,33.119 C297.314,31.483 297.314,30.074 297.314,28.904 C297.314,27.543 297.364,25.749 297.455,23.497 C297.548,21.249 297.656,18.957 297.77,16.616 C297.888,14.275 298.005,12.071 298.122,10.014 C298.233,8.052 298.335,6.576 298.424,5.551 C297.568,5.82 296.924,6.007 296.924,6.007 C296.924,6.007 292.568,7.547 292.619,13.165 C292.674,14.921 292.716,16.707 292.748,18.546 C292.82,23.203 292.856,27.988 292.856,32.907 L292.856,42.458 C290.702,40.309 288.181,37.7 285.302,34.627 C282.421,31.563 279.379,28.306 276.174,24.863 C273.216,21.69 262.961,11.476 258.834,7.136 C254.886,3.552 254.803,7.769 254.803,7.769 L254.799,7.769 C254.825,8.91 254.845,10.206 254.855,11.695 C254.875,14.928 254.886,18.792 254.886,23.285 C254.886,24.831 254.864,26.585 254.82,28.55 C254.773,30.52 254.713,32.534 254.641,34.591 C254.572,36.656 254.48,38.715 254.362,40.771 C254.26,42.574 254.17,44.233 254.086,45.798 C254.154,47.753 254.938,51.788 259.984,53.628 C259.937,53.253 259.893,52.538 259.841,51.485 C259.799,50.429 259.75,49.198 259.701,47.799 C259.66,46.39 259.609,44.874 259.564,43.23 C259.519,41.594 259.48,39.976 259.457,38.387 C259.435,36.797 259.413,35.275 259.386,33.825 C259.365,32.37 259.354,31.15 259.354,30.166 C259.354,26.376 259.374,23.378 259.421,21.179 C259.467,18.981 259.519,17.222 259.564,15.911 C265.65,22.374 271.733,28.872 277.824,35.401 Z" id="Fill-33" fill="#0D6EFD" fill-rule="nonzero"></path><path d="M430.633,18.91 C431.923,15.795 433.73,13.16 436.044,11.009 C438.358,8.856 441.133,7.217 444.364,6.095 C447.595,4.969 451.128,4.407 454.966,4.407 C458.856,4.407 462.416,4.969 465.644,6.095 C468.874,7.217 471.652,8.856 473.967,11.009 C476.283,13.16 478.086,15.795 479.375,18.91 C480.664,22.024 481.303,25.566 481.303,29.548 C481.303,33.529 480.664,37.073 479.375,40.192 C478.086,43.302 476.283,45.942 473.967,48.091 C471.652,50.245 468.874,51.849 465.644,52.903 C462.416,53.956 458.856,54.48 454.966,54.48 C451.128,54.48 447.595,53.956 444.364,52.903 C441.133,51.849 438.358,50.245 436.044,48.091 C433.73,45.942 431.923,43.302 430.633,40.192 C429.348,37.073 428.703,33.529 428.703,29.548 C428.703,25.566 429.348,22.024 430.633,18.91 Z M468.838,12.448 C467.085,10.595 465.02,9.229 462.662,8.341 C460.296,7.45 457.731,7.004 454.966,7.004 C452.253,7.004 449.714,7.45 447.349,8.341 C444.982,9.229 442.925,10.595 441.171,12.448 C439.414,14.3 438.044,16.639 437.058,19.472 C436.075,22.305 435.584,25.668 435.584,29.548 C435.584,33.437 436.075,36.796 437.058,39.623 C438.044,42.458 439.414,44.801 441.171,46.648 C442.925,48.496 444.982,49.869 447.349,50.756 C449.714,51.645 452.253,52.094 454.966,52.094 C457.731,52.094 460.296,51.645 462.662,50.756 C465.02,49.869 467.085,48.496 468.838,46.648 C470.595,44.801 471.966,42.458 472.95,39.623 C473.93,36.796 474.424,33.437 474.424,29.548 C474.424,25.668 473.93,22.305 472.95,19.472 C471.966,16.639 470.595,14.3 468.838,12.448 Z" id="Fill-34" fill="#0D6EFD" fill-rule="nonzero"></path><path d="M387.077,30.883 C384.664,29.058 381.378,28.052 377.208,27.861 L377.208,27.719 C380.719,26.928 383.563,25.545 385.744,23.579 C387.921,21.612 389.007,18.898 389.007,15.434 C389.007,13.466 388.609,11.826 387.815,10.513 C387.018,9.204 385.938,8.165 384.583,7.39 C383.228,6.62 381.656,6.084 379.878,5.777 C378.094,5.474 376.2,5.322 374.19,5.322 C372.969,5.322 371.731,5.377 370.466,5.495 C369.201,5.613 367.965,5.671 366.742,5.671 C365.667,5.671 364.561,5.634 363.447,5.579 C363.443,5.579 363.424,5.597 363.424,5.597 C363.424,5.597 359.605,5.588 359.605,12.27 L359.598,12.27 C359.623,12.948 359.662,13.631 359.685,14.313 C359.804,17.306 359.863,20.35 359.863,23.439 L359.863,35.52 C359.863,38.608 359.804,41.642 359.685,44.611 C359.57,47.589 359.44,50.572 359.3,53.567 C360.424,53.472 361.562,53.429 362.708,53.429 C363.852,53.429 364.988,53.429 366.112,53.429 C367.239,53.429 368.373,53.448 369.521,53.499 C370.666,53.542 371.802,53.567 372.927,53.567 C374.985,53.567 377.055,53.346 379.144,52.903 C381.226,52.456 383.131,51.683 384.866,50.585 C386.594,49.484 388.003,48.046 389.078,46.263 C390.157,44.482 390.693,42.285 390.693,39.661 C390.693,35.635 389.486,32.709 387.077,30.883 Z M380.863,48.122 C379.834,49.131 378.626,49.891 377.244,50.407 C375.864,50.924 374.422,51.184 372.927,51.184 C371.661,51.184 370.421,51.144 369.201,51.075 C367.986,51.003 366.929,50.924 366.044,50.827 C365.951,48.441 365.855,46.075 365.76,43.736 C365.668,41.389 365.624,39.031 365.624,36.641 L365.624,21.612 C365.624,19.366 365.668,17.144 365.76,14.94 C365.855,12.74 365.951,10.513 366.044,8.264 C366.697,8.177 367.446,8.094 368.291,8.025 C369.133,7.955 370.162,7.915 371.383,7.915 C372.739,7.915 374.094,8.025 375.457,8.235 C376.812,8.441 378.028,8.867 379.104,9.497 C380.182,10.131 381.074,11.02 381.776,12.166 C382.477,13.315 382.828,14.847 382.828,16.77 C382.828,18.731 382.441,20.363 381.671,21.649 C380.897,22.934 379.878,23.965 378.615,24.735 C377.346,25.513 375.91,26.065 374.296,26.386 C374.296,26.386 368.218,27.338 367.017,29.543 L368.78,29.48 C371.124,29.48 373.24,29.619 375.135,29.9 C377.034,30.176 378.657,30.686 380.02,31.407 C381.378,32.134 382.418,33.143 383.143,34.432 C383.869,35.716 384.232,37.368 384.232,39.38 C384.232,41.256 383.927,42.927 383.321,44.4 C382.711,45.879 381.89,47.117 380.863,48.122 Z" id="Fill-35" fill="#0D6EFD" fill-rule="nonzero"></path><path d="M423.246,30.883 C420.833,29.058 417.549,28.052 413.379,27.861 L413.379,27.719 C416.892,26.928 419.735,25.545 421.917,23.579 C424.091,21.612 425.179,18.898 425.179,15.434 C425.179,13.466 424.781,11.826 423.986,10.513 C423.189,9.204 422.109,8.165 420.753,7.39 C419.399,6.62 417.83,6.084 416.048,5.777 C414.266,5.474 412.371,5.322 410.362,5.322 C409.142,5.322 407.904,5.377 406.638,5.495 C405.374,5.613 404.133,5.671 402.915,5.671 C401.837,5.671 400.732,5.634 399.618,5.579 C399.614,5.579 399.596,5.597 399.596,5.597 C399.596,5.597 395.779,5.588 395.779,12.27 L395.77,12.27 C395.795,12.948 395.833,13.631 395.859,14.313 C395.975,17.306 396.035,20.35 396.035,23.439 L396.035,35.52 C396.035,38.608 395.975,41.642 395.859,44.611 C395.744,47.589 395.612,50.572 395.47,53.567 C396.594,53.472 397.734,53.429 398.879,53.429 C400.022,53.429 401.163,53.429 402.287,53.429 C403.408,53.429 404.543,53.448 405.69,53.499 C406.837,53.542 407.976,53.567 409.101,53.567 C411.156,53.567 413.225,53.346 415.315,52.903 C417.396,52.456 419.303,51.683 421.034,50.585 C422.766,49.484 424.173,48.046 425.252,46.263 C426.326,44.482 426.862,42.285 426.862,39.661 C426.862,35.635 425.659,32.709 423.246,30.883 Z M417.031,48.122 C416.007,49.131 414.799,49.891 413.416,50.407 C412.036,50.924 410.595,51.184 409.101,51.184 C407.832,51.184 406.591,51.144 405.374,51.075 C404.153,51.003 403.1,50.924 402.215,50.827 C402.122,48.441 402.029,46.075 401.931,43.736 C401.839,41.389 401.796,39.031 401.796,36.641 L401.796,21.612 C401.796,19.366 401.839,17.144 401.931,14.94 C402.029,12.74 402.122,10.513 402.215,8.264 C402.871,8.177 403.619,8.094 404.462,8.025 C405.301,7.955 406.335,7.915 407.554,7.915 C408.91,7.915 410.264,8.025 411.628,8.235 C412.983,8.441 414.202,8.867 415.277,9.497 C416.354,10.131 417.247,11.02 417.945,12.166 C418.648,13.315 418.998,14.847 418.998,16.77 C418.998,18.731 418.612,20.363 417.843,21.649 C417.068,22.934 416.048,23.965 414.786,24.735 C413.519,25.513 412.083,26.065 410.466,26.386 C410.466,26.386 404.389,27.338 403.188,29.543 L404.953,29.48 C407.296,29.48 409.413,29.619 411.307,29.9 C413.206,30.176 414.828,30.686 416.191,31.407 C417.549,32.134 418.591,33.143 419.316,34.432 C420.04,35.716 420.404,37.368 420.404,39.38 C420.404,41.256 420.098,42.927 419.49,44.4 C418.883,45.879 418.061,47.117 417.031,48.122 Z" id="Fill-36" fill="#0D6EFD" fill-rule="nonzero"></path><path d="M349.465,41.313 C348.268,38.574 346.995,35.612 345.639,32.427 C344.276,29.242 342.918,26.035 341.565,22.804 C340.204,19.576 338.873,16.383 337.563,13.22 C336.253,10.058 335.032,7.123 333.906,4.407 C331.811,4.21 329.666,7.879 328.492,10.264 C325.71,16.625 322.933,22.931 320.173,29.127 C317.654,34.785 315.073,40.472 312.465,46.178 C312.465,46.178 310.494,50.245 315.785,53.567 C316.392,51.412 317.311,48.687 318.529,45.386 C319.744,42.082 321.102,38.608 322.6,34.962 L323.934,31.725 L331.591,13.884 L339.386,31.725 C338.074,31.77 336.76,31.81 335.45,31.83 C334.14,31.855 332.83,31.853 331.521,31.864 C326.315,31.918 325.003,34.885 325.003,34.885 C326.407,34.857 329.715,34.818 331.168,34.818 C332.718,34.818 334.262,34.829 335.806,34.851 C337.347,34.877 338.873,34.907 340.371,34.962 C340.978,36.5 341.633,38.128 342.337,39.835 C343.037,41.549 343.73,43.232 344.409,44.895 C344.79,45.829 345.144,46.728 345.488,47.617 C346.316,49.171 349.133,53.471 354.835,53.588 C354.909,53.584 354.977,53.56 355.046,53.567 C354.438,52.441 353.652,50.809 352.694,48.651 C351.734,46.497 350.658,44.052 349.465,41.313 Z" id="Fill-37" fill="#0D6EFD" fill-rule="nonzero"></path><path d="M544.667,5.565 C541.718,5.635 539.675,5.671 536.586,5.671 C533.499,5.671 527.912,5.635 524.963,5.565 C517.174,5.435 515.907,9.743 515.907,9.743 C516.888,9.602 518,9.485 519.24,9.392 C520.482,9.303 521.773,9.215 523.103,9.147 C524.441,9.079 526.824,9.028 528.15,9.008 C529.489,8.983 530.767,8.968 531.98,8.968 C532.123,13.795 532.191,18.641 532.191,23.508 L532.191,35.59 C532.191,38.68 532.133,41.724 532.013,44.722 C531.904,47.719 531.771,50.662 531.628,53.567 C531.628,53.567 538.345,52.371 538.597,42.627 C538.531,40.307 538.489,37.966 538.489,35.59 L538.489,23.508 C538.489,18.641 538.55,13.795 538.694,8.968 C539.912,8.968 541.191,8.983 542.519,9.008 C543.855,9.028 545.194,9.079 546.526,9.147 C546.879,9.166 547.208,9.188 547.56,9.209 C553.674,9.278 555.468,5.433 555.468,5.433 C552.382,5.523 547.61,5.495 544.667,5.565 Z" id="Fill-38" fill="#0D6EFD" fill-rule="nonzero"></path><g id="Group-44" transform="translate(150.000000, 5.000000)"><g id="Fill-39-Clipped"><mask id="mask-18" fill="white"><use xlink:href="#path-17"></use></mask><g id="path-8"></g><path d="M356.291,0.565 C353.339,0.635 351.299,0.671 348.212,0.671 C345.123,0.671 339.075,0.635 336.124,0.565 C328.338,0.435 327.067,4.743 327.067,4.743 C328.048,4.602 329.164,4.485 330.402,4.392 C331.642,4.303 332.934,4.215 334.261,4.147 C335.6,4.079 338.448,4.028 339.777,4.008 C341.116,3.983 342.39,3.968 343.606,3.968 C343.747,8.795 343.816,13.641 343.816,18.508 L343.816,30.59 C343.816,33.68 343.756,36.724 343.636,39.722 C343.525,42.719 343.394,45.662 343.254,48.567 C343.254,48.567 349.97,47.371 350.223,37.627 C350.155,35.307 350.116,32.966 350.116,30.59 L350.116,18.508 C350.116,13.641 350.179,8.795 350.32,3.968 C351.54,3.968 352.815,3.983 354.146,4.008 C355.483,4.028 356.228,4.079 357.556,4.147 C357.917,4.166 358.243,4.188 358.593,4.209 C364.706,4.278 366.506,0.433 366.506,0.433 C363.418,0.523 359.241,0.495 356.291,0.565 Z" id="Fill-39" fill="#0D6EFD" fill-rule="nonzero" mask="url(#mask-18)"></path></g><g id="Fill-41-Clipped"><mask id="mask-20" fill="white"><use xlink:href="#path-19"></use></mask><g id="path-8"></g><path d="M112.998,64.949 C113.542,63.629 114.303,62.521 115.284,61.611 C116.263,60.702 117.432,60.01 118.797,59.534 C120.164,59.058 121.654,58.821 123.278,58.821 C124.92,58.821 126.424,59.058 127.789,59.534 C129.153,60.01 130.327,60.702 131.305,61.611 C132.287,62.521 133.046,63.629 133.592,64.949 C134.133,66.263 134.41,67.76 134.41,69.443 C134.41,71.124 134.133,72.623 133.592,73.937 C133.046,75.252 132.287,76.366 131.305,77.279 C130.327,78.184 129.153,78.865 127.789,79.306 C126.424,79.756 124.92,79.979 123.278,79.979 C121.654,79.979 120.164,79.756 118.797,79.306 C117.432,78.865 116.263,78.184 115.284,77.279 C114.303,76.366 113.542,75.252 112.998,73.937 C112.455,72.623 112.183,71.124 112.183,69.443 C112.183,67.76 112.455,66.263 112.998,64.949 Z M130.874,65.184 C130.46,63.99 129.88,63 129.137,62.218 C128.398,61.437 127.526,60.856 126.528,60.481 C125.53,60.11 124.445,59.919 123.278,59.919 C122.132,59.919 121.059,60.11 120.059,60.481 C119.062,60.856 118.191,61.437 117.447,62.218 C116.709,63 116.126,63.99 115.712,65.184 C115.296,66.383 115.09,67.802 115.09,69.443 C115.09,71.087 115.296,72.505 115.712,73.699 C116.126,74.896 116.709,75.885 117.447,76.667 C118.191,77.448 119.062,78.025 120.059,78.402 C121.059,78.781 122.132,78.965 123.278,78.965 C124.445,78.965 125.53,78.781 126.528,78.402 C127.526,78.025 128.398,77.448 129.137,76.667 C129.88,75.885 130.46,74.896 130.874,73.699 C131.291,72.505 131.496,71.087 131.496,69.443 C131.496,67.802 131.291,66.383 130.874,65.184 L130.874,65.184 Z" id="Fill-41" fill="#0D6EFD" fill-rule="nonzero" mask="url(#mask-20)"></path></g><g id="Fill-42-Clipped"><mask id="mask-22" fill="white"><use xlink:href="#path-21"></use></mask><g id="path-8"></g><path d="M14.404,78.336 L14.404,78.332 C14.056,78.476 13.695,78.611 13.308,78.727 C12.706,78.905 12.048,78.989 11.334,78.989 C10.167,78.989 9.083,78.803 8.085,78.427 C7.086,78.055 6.216,77.471 5.474,76.69 C4.732,75.909 4.153,74.919 3.737,73.723 C3.325,72.53 3.117,71.11 3.117,69.462 C3.117,67.823 3.325,66.405 3.737,65.21 C4.153,64.011 4.732,63.023 5.474,62.241 C6.216,61.459 7.086,60.879 8.085,60.503 C9.083,60.131 10.167,59.942 11.334,59.942 C12.048,59.942 12.7,60.038 13.292,60.223 C13.398,60.257 13.492,60.298 13.596,60.336 L13.597,60.329 C13.597,60.329 16.695,61.624 17.772,60.211 C16.942,59.833 15.987,59.51 14.91,59.242 C13.832,58.976 12.638,58.842 11.334,58.842 C9.694,58.842 8.191,59.082 6.825,59.555 C5.459,60.034 4.288,60.727 3.308,61.633 C2.328,62.544 1.568,63.655 1.023,64.97 C0.478,66.29 0.21,67.785 0.21,69.462 C0.21,71.148 0.478,72.645 1.023,73.963 C1.568,75.275 2.32,76.39 3.278,77.3 C4.239,78.209 5.38,78.886 6.706,79.33 C8.031,79.779 9.475,79.999 11.037,79.999 C11.768,79.999 12.47,79.94 13.143,79.824 C13.814,79.702 14.426,79.566 14.968,79.421 C15.513,79.274 15.978,79.105 16.365,78.917 C16.752,78.733 17.033,78.555 17.21,78.397 C16.154,77.557 14.404,78.336 14.404,78.336" id="Fill-42" fill="#0D6EFD" fill-rule="nonzero" mask="url(#mask-22)"></path></g><g id="Fill-43-Clipped"><mask id="mask-24" fill="white"><use xlink:href="#path-23"></use></mask><g id="path-8"></g><path d="M109.479,78.336 L109.479,78.332 C109.13,78.476 108.769,78.611 108.384,78.727 C107.781,78.905 107.123,78.989 106.41,78.989 C105.244,78.989 104.159,78.803 103.161,78.427 C102.16,78.055 101.291,77.471 100.549,76.69 C99.808,75.909 99.229,74.919 98.813,73.723 C98.4,72.53 98.193,71.11 98.193,69.462 C98.193,67.823 98.4,66.405 98.813,65.21 C99.229,64.011 99.808,63.023 100.549,62.241 C101.291,61.459 102.16,60.879 103.161,60.503 C104.159,60.131 105.244,59.942 106.41,59.942 C107.123,59.942 107.775,60.038 108.367,60.223 C108.472,60.257 108.568,60.298 108.671,60.336 L108.674,60.329 C108.674,60.329 111.77,61.624 112.847,60.211 C112.015,59.833 111.063,59.51 109.986,59.242 C108.908,58.976 107.713,58.842 106.41,58.842 C104.77,58.842 103.267,59.082 101.901,59.555 C100.536,60.034 99.362,60.727 98.385,61.633 C97.404,62.544 96.643,63.655 96.099,64.97 C95.552,66.29 95.284,67.785 95.284,69.462 C95.284,71.148 95.552,72.645 96.099,73.963 C96.643,75.275 97.395,76.39 98.356,77.3 C99.314,78.209 100.455,78.886 101.78,79.33 C103.106,79.779 104.551,79.999 106.112,79.999 C106.843,79.999 107.546,79.94 108.22,79.824 C108.891,79.702 109.502,79.566 110.045,79.421 C110.59,79.274 111.054,79.105 111.44,78.917 C111.827,78.733 112.108,78.555 112.284,78.397 C111.229,77.557 109.479,78.336 109.479,78.336" id="Fill-43" fill="#0D6EFD" fill-rule="nonzero" mask="url(#mask-24)"></path></g></g><path d="M180.178,64.25 C180.178,64.246 180.178,64.238 180.18,64.233 C179.29,64.271 178.41,64.301 177.54,64.336 C176.67,64.363 175.789,64.376 174.899,64.376 C174.191,64.376 173.488,64.363 172.784,64.343 C172.626,64.351 172.453,64.351 172.242,64.336 C169.461,64.132 169.684,66.232 169.684,66.232 C169.701,66.828 169.729,67.427 169.753,68.029 C169.8,69.295 169.826,70.577 169.826,71.885 L169.826,76.992 C169.826,78.292 169.8,79.576 169.753,80.831 C169.702,82.088 169.648,83.346 169.589,84.613 C170.497,84.573 171.4,84.554 172.289,84.554 C173.178,84.554 174.078,84.554 174.986,84.554 C175.897,84.554 176.792,84.554 177.674,84.554 C178.553,84.554 179.437,84.573 180.328,84.613 C180.328,84.613 179.792,83.189 177.52,83.233 C177.449,83.234 177.391,83.229 177.327,83.226 C177.089,83.242 176.852,83.253 176.605,83.263 C175.883,83.297 175.146,83.308 174.396,83.308 C173.663,83.308 172.971,83.308 172.317,83.308 C172.297,82.934 172.284,82.376 172.274,81.647 C172.261,80.916 172.258,79.985 172.258,78.857 L172.258,75.919 C172.258,75.603 172.261,75.337 172.274,75.135 C172.284,74.925 172.289,74.731 172.289,74.556 C172.643,74.556 173.126,74.559 173.726,74.569 C174.331,74.581 174.975,74.59 175.655,74.597 C176.339,74.609 177.021,74.633 177.705,74.677 C178.386,74.712 178.983,74.761 179.496,74.823 C179.496,74.823 179.004,73.201 176.532,73.205 C175.957,73.233 175.324,73.26 174.632,73.28 C173.939,73.298 173.161,73.307 172.289,73.307 C172.289,72.934 172.284,72.378 172.274,71.648 C172.261,70.916 172.258,70.166 172.258,69.393 C172.258,68.662 172.274,68.005 172.302,67.433 C172.332,66.86 172.357,66.258 172.378,65.624 C173.346,65.624 174.177,65.64 174.87,65.668 C174.87,65.668 176.603,65.791 177.187,65.773 C179.844,65.692 180.149,64.421 180.178,64.25 Z" id="Fill-45" fill="#0D6EFD" fill-rule="nonzero"></path><g id="Group-49" transform="translate(181.000000, 63.000000)"><g id="Fill-46-Clipped"><mask id="mask-26" fill="white"><use xlink:href="#path-25"></use></mask><g id="path-10"></g><path d="M29.591,2.773 C32.248,2.692 32.553,1.421 32.581,1.25 C32.583,1.246 32.583,1.238 32.585,1.233 C31.696,1.271 30.814,1.301 29.943,1.336 C29.075,1.363 28.194,1.376 27.304,1.376 C26.595,1.376 25.892,1.363 25.19,1.343 C25.031,1.351 24.856,1.351 24.647,1.336 C21.865,1.132 22.089,3.232 22.089,3.232 L22.078,3.229 C22.106,3.828 22.134,4.427 22.159,5.029 C22.205,6.295 22.232,7.577 22.232,8.885 L22.232,13.992 C22.232,15.292 22.205,16.576 22.159,17.831 C22.106,19.088 22.051,20.346 21.993,21.613 C22.903,21.573 23.803,21.554 24.694,21.554 C25.583,21.554 26.482,21.554 27.391,21.554 C28.302,21.554 29.198,21.554 30.08,21.554 C30.958,21.554 31.841,21.573 32.732,21.613 C32.732,21.613 32.197,20.189 29.925,20.233 C29.853,20.234 29.797,20.229 29.73,20.226 C29.492,20.242 29.256,20.253 29.01,20.263 C28.288,20.297 27.551,20.308 26.8,20.308 C26.067,20.308 25.376,20.308 24.722,20.308 C24.701,19.934 24.688,19.376 24.678,18.647 C24.666,17.916 24.662,16.985 24.662,15.857 L24.662,12.919 C24.662,12.603 24.666,12.337 24.678,12.135 C24.688,11.925 24.694,11.731 24.694,11.556 C25.048,11.556 25.528,11.559 26.132,11.569 C26.736,11.581 27.379,11.59 28.06,11.597 C28.742,11.609 29.425,11.633 30.108,11.677 C30.79,11.712 31.388,11.761 31.9,11.823 C31.9,11.823 31.407,10.201 28.937,10.205 C28.361,10.233 27.728,10.26 27.037,10.28 C26.344,10.298 25.564,10.307 24.694,10.307 C24.694,9.934 24.688,9.378 24.678,8.648 C24.666,7.916 24.662,7.166 24.662,6.393 C24.662,5.662 24.678,5.005 24.707,4.433 C24.737,3.86 24.762,3.258 24.784,2.624 C25.75,2.624 26.582,2.64 27.275,2.668 C27.275,2.668 29.008,2.791 29.591,2.773" id="Fill-46" fill="#0D6EFD" fill-rule="nonzero" mask="url(#mask-26)"></path></g><g id="Fill-48-Clipped"><mask id="mask-28" fill="white"><use xlink:href="#path-27"></use></mask><g id="path-10"></g><path d="M17.072,15.459 C17.071,15.47 17.07,15.474 17.07,15.487 C17.074,15.757 17.087,16.029 17.087,16.302 C17.087,16.914 17.084,17.519 17.073,18.111 C17.064,18.707 17.05,19.3 17.029,19.892 C16.774,20.055 16.46,20.189 16.092,20.308 C15.73,20.427 15.334,20.524 14.909,20.603 C14.479,20.682 14.043,20.745 13.587,20.784 C13.13,20.824 12.696,20.84 12.28,20.84 C10.899,20.84 9.654,20.623 8.56,20.189 C7.46,19.753 6.532,19.135 5.77,18.335 C5.008,17.529 4.429,16.55 4.031,15.382 C3.636,14.218 3.44,12.914 3.44,11.462 C3.44,9.823 3.665,8.405 4.106,7.21 C4.554,6.011 5.165,5.023 5.947,4.241 C6.729,3.459 7.648,2.879 8.708,2.503 C9.763,2.131 10.904,1.942 12.132,1.942 C12.884,1.942 13.592,2.027 14.255,2.196 C14.916,2.363 15.523,2.581 16.065,2.851 C18.697,4.203 19.698,2.563 19.698,2.563 C19.344,2.386 18.937,2.201 18.483,1.998 C18.028,1.804 17.5,1.618 16.895,1.437 C16.292,1.261 15.6,1.114 14.818,1.008 C14.038,0.902 13.142,0.842 12.132,0.842 C10.394,0.842 8.804,1.082 7.369,1.555 C5.936,2.034 4.717,2.727 3.705,3.633 C2.695,4.544 1.916,5.655 1.363,6.97 C0.808,8.29 0.533,9.785 0.533,11.462 C0.533,13.207 0.798,14.74 1.333,16.067 C1.867,17.393 2.631,18.5 3.618,19.386 C4.608,20.278 5.809,20.937 7.222,21.362 C8.637,21.787 10.224,21.999 11.986,21.999 C12.559,21.999 13.195,21.953 13.897,21.865 C14.601,21.779 15.306,21.677 16.005,21.566 C16.706,21.46 17.372,21.324 17.993,21.151 C18.615,20.987 19.133,20.824 19.551,20.665 C19.551,20.268 19.546,19.867 19.535,19.464 C19.525,19.056 19.521,18.658 19.521,18.26 C19.521,16.659 19.53,15.369 19.551,14.39 C19.568,13.486 19.598,12.819 19.632,12.358 L19.626,12.354 C19.626,12.354 17.145,12.406 17.072,15.459" id="Fill-48" fill="#0D6EFD" fill-rule="nonzero" mask="url(#mask-28)"></path></g></g><path d="M323.72,64.25 C323.72,64.246 323.72,64.238 323.721,64.233 C322.833,64.271 321.952,64.301 321.081,64.336 C320.213,64.363 319.332,64.376 318.439,64.376 C317.734,64.376 317.031,64.363 316.328,64.343 C316.168,64.351 315.998,64.351 315.783,64.336 C313.003,64.132 313.227,66.232 313.227,66.232 L313.216,66.229 C313.245,66.828 313.272,67.427 313.296,68.029 C313.344,69.295 313.368,70.577 313.368,71.885 L313.368,76.992 C313.368,78.292 313.344,79.576 313.296,80.831 C313.245,82.088 313.189,83.346 313.13,84.613 C314.043,84.573 314.942,84.554 315.832,84.554 C316.718,84.554 317.621,84.554 318.529,84.554 C319.44,84.554 320.335,84.554 321.218,84.554 C322.098,84.554 322.978,84.573 323.87,84.613 C323.87,84.613 323.337,83.189 321.061,83.233 C320.994,83.234 320.932,83.229 320.869,83.226 C320.631,83.242 320.393,83.253 320.148,83.263 C319.425,83.297 318.687,83.308 317.938,83.308 C317.204,83.308 316.512,83.308 315.858,83.308 C315.841,82.934 315.824,82.376 315.815,81.647 C315.806,80.916 315.801,79.985 315.801,78.857 L315.801,75.919 C315.801,75.603 315.806,75.337 315.815,75.135 C315.824,74.925 315.832,74.731 315.832,74.556 C316.186,74.556 316.667,74.559 317.27,74.569 C317.875,74.581 318.516,74.59 319.195,74.597 C319.882,74.609 320.563,74.633 321.247,74.677 C321.925,74.712 322.527,74.761 323.038,74.823 C323.038,74.823 322.545,73.201 320.074,73.205 C319.5,73.233 318.866,73.26 318.174,73.28 C317.482,73.298 316.702,73.307 315.832,73.307 C315.832,72.934 315.824,72.378 315.815,71.648 C315.806,70.916 315.801,70.166 315.801,69.393 C315.801,68.662 315.815,68.005 315.846,67.433 C315.875,66.86 315.898,66.258 315.92,65.624 C316.886,65.624 317.717,65.64 318.413,65.668 C318.413,65.668 320.147,65.791 320.73,65.773 C323.388,65.692 323.692,64.421 323.72,64.25 Z" id="Fill-50" fill="#0D6EFD" fill-rule="nonzero"></path><g id="Group-54" transform="translate(325.000000, 63.000000)"><g id="Fill-51-Clipped"><mask id="mask-30" fill="white"><use xlink:href="#path-29"></use></mask><g id="path-12"></g><path d="M29.466,2.773 C32.121,2.692 32.429,1.421 32.457,1.25 C32.46,1.246 32.46,1.238 32.462,1.233 C31.572,1.271 30.689,1.301 29.821,1.336 C28.95,1.363 28.069,1.376 27.18,1.376 C26.47,1.376 25.768,1.363 25.065,1.343 C24.906,1.351 24.732,1.351 24.52,1.336 C21.741,1.132 21.963,3.232 21.963,3.232 L21.956,3.229 C21.983,3.828 22.008,4.427 22.035,5.029 C22.08,6.295 22.109,7.577 22.109,8.885 L22.109,13.992 C22.109,15.292 22.08,16.576 22.035,17.831 C21.983,19.088 21.925,20.346 21.87,21.613 C22.78,21.573 23.68,21.554 24.573,21.554 C25.459,21.554 26.358,21.554 27.267,21.554 C28.177,21.554 29.074,21.554 29.956,21.554 C30.833,21.554 31.716,21.573 32.607,21.613 C32.607,21.613 32.072,20.189 29.799,20.233 C29.728,20.234 29.671,20.229 29.608,20.226 C29.367,20.242 29.133,20.253 28.888,20.263 C28.164,20.297 27.427,20.308 26.675,20.308 C25.943,20.308 25.251,20.308 24.598,20.308 C24.576,19.934 24.563,19.376 24.555,18.647 C24.541,17.916 24.538,16.985 24.538,15.857 L24.538,12.919 C24.538,12.603 24.541,12.337 24.555,12.135 C24.563,11.925 24.573,11.731 24.573,11.556 C24.923,11.556 25.406,11.559 26.008,11.569 C26.614,11.581 27.254,11.59 27.935,11.597 C28.619,11.609 29.3,11.633 29.984,11.677 C30.667,11.712 31.265,11.761 31.777,11.823 C31.777,11.823 31.283,10.201 28.813,10.205 C28.237,10.233 27.605,10.26 26.914,10.28 C26.219,10.298 25.441,10.307 24.573,10.307 C24.573,9.934 24.563,9.378 24.555,8.648 C24.541,7.916 24.538,7.166 24.538,6.393 C24.538,5.662 24.555,5.005 24.585,4.433 C24.612,3.86 24.635,3.258 24.656,2.624 C25.626,2.624 26.457,2.64 27.148,2.668 C27.148,2.668 28.883,2.791 29.466,2.773" id="Fill-51" fill="#0D6EFD" fill-rule="nonzero" mask="url(#mask-30)"></path></g><g id="Fill-53-Clipped"><mask id="mask-32" fill="white"><use xlink:href="#path-31"></use></mask><g id="path-12"></g><path d="M16.615,15.459 C16.615,15.47 16.611,15.474 16.611,15.487 C16.618,15.757 16.63,16.029 16.63,16.302 C16.63,16.914 16.625,17.519 16.615,18.111 C16.604,18.707 16.59,19.3 16.572,19.892 C16.313,20.055 16.002,20.189 15.635,20.308 C15.27,20.427 14.876,20.524 14.451,20.603 C14.021,20.682 13.584,20.745 13.13,20.784 C12.671,20.824 12.239,20.84 11.823,20.84 C10.441,20.84 9.198,20.623 8.105,20.189 C7.001,19.753 6.073,19.135 5.309,18.335 C4.551,17.529 3.971,16.55 3.573,15.382 C3.179,14.218 2.984,12.914 2.984,11.462 C2.984,9.823 3.209,8.405 3.649,7.21 C4.095,6.011 4.708,5.023 5.489,4.241 C6.269,3.459 7.189,2.879 8.249,2.503 C9.305,2.131 10.446,1.942 11.675,1.942 C12.426,1.942 13.132,2.027 13.797,2.196 C14.459,2.363 15.065,2.581 15.608,2.851 C18.239,4.203 19.242,2.563 19.242,2.563 C18.885,2.386 18.479,2.201 18.024,1.998 C17.57,1.804 17.041,1.618 16.436,1.437 C15.836,1.261 15.14,1.114 14.359,1.008 C13.579,0.902 12.684,0.842 11.675,0.842 C9.935,0.842 8.346,1.082 6.912,1.555 C5.476,2.034 4.258,2.727 3.25,3.633 C2.236,4.544 1.459,5.655 0.907,6.97 C0.35,8.29 0.075,9.785 0.075,11.462 C0.075,13.207 0.341,14.74 0.876,16.067 C1.411,17.393 2.172,18.5 3.158,19.386 C4.151,20.278 5.35,20.937 6.764,21.362 C8.178,21.787 9.765,21.999 11.528,21.999 C12.1,21.999 12.738,21.953 13.441,21.865 C14.143,21.779 14.847,21.677 15.547,21.566 C16.248,21.46 16.914,21.324 17.535,21.151 C18.157,20.987 18.677,20.824 19.091,20.665 C19.091,20.268 19.088,19.867 19.077,19.464 C19.068,19.056 19.064,18.658 19.064,18.26 C19.064,16.659 19.074,15.369 19.091,14.39 C19.111,13.486 19.139,12.819 19.174,12.358 L19.169,12.354 C19.169,12.354 16.687,12.406 16.615,15.459" id="Fill-53" fill="#0D6EFD" fill-rule="nonzero" mask="url(#mask-32)"></path></g></g><path d="M228.104,65.741 C227.717,65.366 227.288,65.081 226.812,64.884 C226.335,64.683 225.859,64.536 225.372,64.437 C224.888,64.337 224.431,64.279 223.995,64.261 C223.559,64.242 223.192,64.233 222.898,64.233 C222.677,64.233 222.411,64.242 222.096,64.261 C221.779,64.279 221.447,64.295 221.102,64.301 C220.756,64.31 220.414,64.329 220.077,64.348 C219.74,64.366 219.456,64.376 219.216,64.376 C218.74,64.376 218.262,64.363 217.778,64.336 C217.292,64.301 216.814,64.271 216.341,64.233 C216.398,65.536 216.453,66.817 216.503,68.072 C216.549,69.328 216.578,70.609 216.578,71.913 L216.578,77.02 C216.578,78.325 216.549,79.61 216.503,80.873 C216.453,82.143 216.398,83.387 216.341,84.613 C216.341,84.613 219.067,83.614 219.067,80.447 C219.067,80.433 219.069,80.421 219.069,80.408 C219.031,79.29 219.009,78.166 219.009,77.02 L219.009,65.329 L221.681,65.329 C222.453,65.329 223.144,65.383 223.757,65.488 C224.368,65.599 224.888,65.804 225.315,66.099 C225.738,66.396 226.072,66.808 226.31,67.348 C226.548,67.879 226.663,68.574 226.663,69.423 C226.663,70.43 226.493,71.254 226.146,71.899 C225.796,72.543 225.354,73.047 224.81,73.414 C224.265,73.779 223.68,74.105 223.014,74.17 C220.792,74.4 220.069,75.389 220.069,75.389 L221.411,75.477 C222.127,75.477 222.941,75.396 223.861,75.234 C224.78,75.082 225.649,74.775 226.472,74.32 C227.295,73.865 227.984,73.227 228.548,72.42 C229.112,71.607 229.395,70.55 229.395,69.245 C229.395,68.415 229.275,67.719 229.038,67.151 C228.799,66.586 228.489,66.119 228.104,65.741 Z" id="Fill-55" fill="#0D6EFD" fill-rule="nonzero"></path><path d="M293.865,83.225 C293.727,83.229 293.585,83.236 293.448,83.242 C292.164,83.27 290.82,83.289 289.413,83.289 C289.395,81.839 289.376,80.206 289.356,78.374 C289.337,76.542 289.327,74.38 289.327,71.89 C289.327,70.609 289.348,69.353 289.395,68.121 C289.376,67.958 289.36,67.775 289.356,67.551 C289.298,64.826 286.654,64.212 286.654,64.212 C286.715,65.514 286.769,66.793 286.817,68.05 C286.866,69.306 286.895,70.585 286.895,71.89 L286.895,76.994 C286.895,78.299 286.866,79.588 286.817,80.853 C286.769,82.117 286.715,83.365 286.654,84.59 C287.602,84.551 288.522,84.53 289.397,84.53 C290.281,84.53 291.194,84.53 292.143,84.53 C293.053,84.53 293.963,84.53 294.876,84.53 C295.782,84.53 296.694,84.551 297.604,84.59 C297.604,84.59 297.025,83.17 293.915,83.225 C293.896,83.225 293.884,83.225 293.865,83.225 Z" id="Fill-56" fill="#0D6EFD" fill-rule="nonzero"></path><g id="Group-61" fill="#0D6EFD" fill-rule="nonzero"><g id="Fill-57-Clipped" transform="translate(300.000000, 64.000000)"><path d="M7.418,19.225 C7.402,19.225 7.387,19.225 7.371,19.225 C7.233,19.229 7.092,19.236 6.955,19.242 C5.669,19.27 4.328,19.289 2.92,19.289 C2.9,17.839 2.883,16.206 2.863,14.374 C2.842,12.542 2.834,10.38 2.834,7.89 C2.834,6.609 2.855,5.353 2.903,4.121 C2.883,3.958 2.867,3.775 2.863,3.551 C2.804,0.826 0.159,0.212 0.159,0.212 C0.221,1.514 0.276,2.793 0.323,4.05 C0.374,5.306 0.401,6.585 0.401,7.89 L0.401,12.994 C0.401,14.299 0.374,15.588 0.323,16.853 C0.276,18.117 0.221,19.365 0.159,20.59 C1.11,20.551 2.026,20.53 2.904,20.53 C3.788,20.53 4.7,20.53 5.65,20.53 C6.559,20.53 7.471,20.53 8.379,20.53 C9.288,20.53 10.2,20.551 11.113,20.59 C11.113,20.59 10.531,19.17 7.418,19.225" id="Fill-57"></path></g><g id="Fill-59-Clipped" transform="translate(229.000000, 64.000000)"><path d="M7.559,7.885 L4.962,13.039 C4.299,14.355 3.626,15.642 2.942,16.9 C2.259,18.158 1.582,19.393 0.91,20.606 C1.098,20.651 3.451,21.144 4.658,18.764 C4.786,18.493 4.905,18.228 5.033,17.955 C5.638,16.655 6.271,15.348 6.937,14.03 L8.294,11.336 L9.003,9.927 L9.532,8.882 C10.195,7.564 10.866,6.282 11.544,5.033 C11.733,4.687 11.926,4.331 12.12,3.979 C13.182,1.591 11.273,0.035 11.273,0.035 C10.659,1.379 10.052,2.691 9.453,3.976 C8.854,5.267 8.223,6.57 7.559,7.885" id="Fill-59"></path></g><g id="Fill-60-Clipped"><path d="M65.991,0.8 C65.991,0.8 64.138,12.062 63.264,17.686 C62.879,20.16 60.278,22.976 57.118,22.874 C50.384,22.874 43.371,22.932 36.588,22.9 C35.761,22.896 35.337,23.066 35.154,23.955 C34.858,25.394 34.402,26.8 33.986,28.32 C36.882,28.307 39.662,28.382 42.435,28.81 C52.431,30.352 59.415,36.843 61.011,46.567 C62.344,54.689 60.048,62.021 55.368,68.668 C52.552,72.667 48.843,75.677 44.539,77.901 C41.273,79.589 37.708,80.394 34.055,80.878 C30.377,81.366 26.672,81.391 23.029,81.055 C18.96,80.68 15.049,79.37 11.486,77.252 C6.347,74.199 2.599,69.913 0.153,64.457 C-0.148,63.787 0.002,63.459 0.547,63.198 C5.181,60.971 9.669,58.443 14.398,56.414 C16.841,55.365 19.907,56.058 21.686,58.218 C25.408,62.737 34.364,63.04 38.835,58.182 C42.152,54.579 40.757,48.708 36.254,47.289 C35.687,47.11 35.126,47.095 34.552,47.095 C28.097,47.094 21.643,47.103 15.188,47.087 C14.009,47.084 12.823,47.018 11.75,46.432 C9.611,45.265 8.961,42.185 9.388,40.341 C10.381,36.058 11.461,31.794 12.535,27.53 C14.704,18.919 16.888,10.311 19.091,1.709 C19.209,1.251 19.145,0.676 20.078,0.679958706 C35.208,0.731 65.991,0.8 65.991,0.8" id="Fill-60"></path></g></g><path d="M84.189,30.55 C84.152,33.187 84.245,35.827 84.222,38.464 C84.178,43.414 84.99,48.205 86.735,52.838 C87.217,54.122 86.937,54.712 85.753,55.295 C85.137,55.599 84.87,55.436 84.608,54.85 C83.523,52.428 82.826,49.896 82.334,47.297 C81.531,43.049 81.628,38.757 81.651,34.467 C81.664,31.896 81.653,29.325 81.653,26.526 C83.278,27.601 84.214,28.744 84.189,30.55 Z" id="Fill-62" fill="#0D6EFD" fill-rule="nonzero"></path><path d="M78.996,33.4 C79.045,38.931 79.212,44.469 77.77,49.889 C77.353,51.457 76.892,53.011 76.198,54.479 C76.017,54.863 76.055,55.668 75.285,55.42 C74.538,55.18 73.736,54.874 73.724,53.864 C73.72,53.585 73.771,53.288 73.872,53.028 C75.916,47.758 76.587,42.276 76.465,36.661 C76.422,34.659 76.545,32.653 76.475,30.653 C76.411,28.798 77.36,27.632 78.993,26.532 C78.993,28.962 78.976,31.182 78.996,33.4 Z" id="Fill-63" fill="#0D6EFD" fill-rule="nonzero"></path><path d="M88.992,34.276 C88.79,39.431 89.493,44.473 90.906,49.42 C91.245,50.611 91.034,51.55 90.15,52.45 C89.536,53.076 89.384,52.855 89.111,52.22 C88.154,49.987 87.558,47.655 87.171,45.27 C86.379,40.391 86.34,35.477 86.549,30.402 C88.18,31.3 89.062,32.49 88.992,34.276 Z" id="Fill-64" fill="#0D6EFD" fill-rule="nonzero"></path><path d="M71.18,52.9 C69.69,51.965 69.319,51.06 69.783,49.391 C71.155,44.458 71.849,39.443 71.691,34.316 C71.633,32.456 72.341,31.362 74.063,30.476 C75.061,36.877 73.544,48.673 71.18,52.9 Z" id="Fill-65" fill="#0D6EFD" fill-rule="nonzero"></path><path d="M67.736,47.8 C65.567,44.713 66.474,37.32 69.375,34.662 C69.768,39.23 68.972,43.504 67.736,47.8 Z" id="Fill-66" fill="#0D6EFD" fill-rule="nonzero"></path><g id="Group-70" transform="translate(59.000000, 0.000000)" fill="#0D6EFD" fill-rule="nonzero"><path d="M33.962,47.94 C32.708,43.489 31.872,39.207 32.298,34.659 C35.167,37.377 35.988,43.76 33.962,47.94" id="Fill-67"></path><path d="M61.223,31.91 C58.017,17.223 46.602,5.501 31.993,1.955 C25.435,0.363 19.064,0.408 13.173,1.724 L13.158,1.815 C13.139,1.927 10.625,17.405 10.597,17.673 C10.171,20.013 9.672,22.625 12.706,22.702 C13.958,22.734 16.72,20.896 21.975,20.962 C32.6,21.095 40.538,32.115 39.879,43.03 C39.174,54.7 32.1,60.98 23.706,61.766 C18.411,62.262 13.52,61.599 9.965,58.231 L9.732,58.009 C9.136,57.446 8.238,57.785 8.002,58.569 C6.47,63.646 4.823,67.514 1.478,72.266 C1,72.945 0.116,73.907 0.116,74.353 C0.116,74.799 0.42,74.956 0.803,75.193 C6.953,79.009 14.204,81.219 21.975,81.219 C47.158,81.219 66.938,58.085 61.223,31.91" id="Fill-69"></path></g></g></g></svg> 